<svg width="24" height="24" viewBox="0 0 24 24" fill="none" xmlns="http://www.w3.org/2000/svg">
<path d="M12 22L11.75 19H11.5C9.13333 19 7.125 18.175 5.475 16.525C3.825 14.875 3 12.8667 3 10.5C3 8.13333 3.825 6.125 5.475 4.475C7.125 2.825 9.13333 2 11.5 2C12.6833 2 13.7877 2.22067 14.813 2.662C15.8383 3.10333 16.7383 3.71167 17.513 4.487C18.2877 5.26233 18.8957 6.16233 19.337 7.187C19.7783 8.21167 19.9993 9.316 20 10.5C20 13.0333 19.2417 15.3043 17.725 17.313C16.2083 19.3217 14.3 20.884 12 22ZM11.475 15.975C11.7583 15.975 12 15.875 12.2 15.675C12.4 15.475 12.5 15.2333 12.5 14.95C12.5 14.6667 12.4 14.425 12.2 14.225C12 14.025 11.7583 13.925 11.475 13.925C11.1917 13.925 10.95 14.025 10.75 14.225C10.55 14.425 10.45 14.6667 10.45 14.95C10.45 15.2333 10.55 15.475 10.75 15.675C10.95 15.875 11.1917 15.975 11.475 15.975ZM11.5 12.8C11.6833 12.8 11.85 12.7333 12 12.6C12.15 12.4667 12.25 12.2833 12.3 12.05C12.3333 11.8333 12.425 11.6373 12.575 11.462C12.725 11.2867 12.9833 11.016 13.35 10.65C13.65 10.35 13.9 10.025 14.1 9.675C14.3 9.325 14.4 8.95 14.4 8.55C14.4 7.7 14.1127 7.06233 13.538 6.637C12.9633 6.21167 12.284 5.99933 11.5 6C10.9167 6 10.4123 6.13333 9.987 6.4C9.56167 6.66667 9.216 7 8.95 7.4C8.83333 7.58333 8.81267 7.775 8.888 7.975C8.96333 8.175 9.11733 8.31667 9.35 8.4C9.51667 8.46667 9.68333 8.46667 9.85 8.4C10.0167 8.33333 10.1667 8.20833 10.3 8.025C10.4333 7.84167 10.596 7.69167 10.788 7.575C10.98 7.45833 11.2173 7.4 11.5 7.4C11.95 7.4 12.2877 7.525 12.513 7.775C12.7383 8.025 12.8507 8.3 12.85 8.6C12.85 8.88333 12.7667 9.13767 12.6 9.363C12.4333 9.58833 12.2333 9.81733 12 10.05C11.5333 10.45 11.2207 10.775 11.062 11.025C10.9033 11.275 10.8077 11.6167 10.775 12.05C10.7583 12.25 10.821 12.425 10.963 12.575C11.105 12.725 11.284 12.8 11.5 12.8ZM14 17V18.35C15.1833 17.35 16.146 16.179 16.888 14.837C17.63 13.495 18.0007 12.0493 18 10.5C18 8.68333 17.3707 7.146 16.112 5.888C14.8533 4.63 13.316 4.00067 11.5 4C9.68333 4 8.146 4.62933 6.888 5.888C5.63 7.14667 5.00067 8.684 5 10.5C5 12.3167 5.62933 13.854 6.888 15.112C8.14667 16.37 9.684 16.9993 11.5 17H14Z" fill="#1E1B1C"/>
</svg>
