<svg width="30" height="30" viewBox="0 0 30 30" fill="none" xmlns="http://www.w3.org/2000/svg">
<rect width="30" height="30" rx="6" fill="#2595C9"/>
<path d="M11.5964 14.8938C11.5964 13.0724 13.0724 11.5956 14.8938 11.5956C16.7151 11.5956 18.1919 13.0724 18.1919 14.8938C18.1919 16.7151 16.7151 18.1919 14.8938 18.1919C13.0724 18.1919 11.5964 16.7151 11.5964 14.8938ZM9.81343 14.8938C9.81343 17.6996 12.0879 19.9741 14.8938 19.9741C17.6996 19.9741 19.9741 17.6996 19.9741 14.8938C19.9741 12.0879 17.6996 9.81343 14.8938 9.81343C12.0879 9.81343 9.81351 12.0877 9.81351 14.8938M18.988 9.61199C18.9879 9.84681 19.0575 10.0764 19.1878 10.2717C19.3182 10.467 19.5036 10.6192 19.7205 10.7092C19.9374 10.7991 20.1761 10.8227 20.4064 10.777C20.6368 10.7313 20.8483 10.6183 21.0144 10.4523C21.1806 10.2863 21.2937 10.0748 21.3396 9.84455C21.3855 9.61427 21.3621 9.37554 21.2723 9.15856C21.1826 8.94159 21.0305 8.7561 20.8353 8.62557C20.6401 8.49503 20.4106 8.42531 20.1757 8.42522H20.1753C19.8605 8.42536 19.5587 8.55043 19.3361 8.77295C19.1135 8.99547 18.9883 9.29724 18.988 9.61199ZM10.8967 22.9471C9.93207 22.9032 9.40778 22.7425 9.05937 22.6068C8.59745 22.4269 8.26787 22.2128 7.92135 21.8667C7.57483 21.5207 7.36033 21.1914 7.18129 20.7295C7.04547 20.3812 6.8848 19.8568 6.84095 18.8922C6.79298 17.8493 6.78341 17.536 6.78341 14.8939C6.78341 12.2518 6.79378 11.9394 6.84095 10.8956C6.88488 9.93105 7.04674 9.40763 7.18129 9.05834C7.36112 8.59642 7.5753 8.26684 7.92135 7.92032C8.26739 7.5738 8.59666 7.3593 9.05937 7.18027C9.40763 7.04444 9.93207 6.88377 10.8967 6.83992C11.9396 6.79196 12.2528 6.78238 14.8938 6.78238C17.5347 6.78238 17.8483 6.79259 18.892 6.84008C19.8566 6.88401 20.38 7.04587 20.7293 7.18042C21.1912 7.35946 21.5208 7.57443 21.8673 7.92048C22.2139 8.26652 22.4276 8.59658 22.6074 9.0585C22.7432 9.40676 22.9039 9.9312 22.9477 10.8958C22.9957 11.9396 23.0053 12.252 23.0053 14.8941C23.0053 17.5362 22.9957 17.8486 22.9477 18.8923C22.9038 19.8569 22.7423 20.3812 22.6074 20.7296C22.4276 21.1916 22.2134 21.5211 21.8673 21.8669C21.5213 22.2126 21.1912 22.4271 20.7293 22.6069C20.3811 22.7427 19.8566 22.9034 18.892 22.9473C17.8491 22.9952 17.5359 23.0048 14.8938 23.0048C12.2516 23.0048 11.9392 22.9952 10.8967 22.9473M10.8148 5.05992C9.76151 5.10788 9.0418 5.27489 8.41326 5.51946C7.76273 5.77203 7.21129 6.11087 6.66065 6.66065C6.11 7.21042 5.77203 7.76194 5.51946 8.41326C5.27489 9.04219 5.10788 9.76151 5.05992 10.8148C5.01116 11.8697 5 12.2069 5 14.8938C5 17.5806 5.01116 17.9178 5.05992 18.9727C5.10788 20.0261 5.27489 20.7453 5.51946 21.3742C5.77203 22.0248 6.11008 22.5773 6.66065 23.1269C7.21121 23.6764 7.76194 24.0148 8.41326 24.268C9.04298 24.5126 9.76151 24.6796 10.8148 24.7276C11.8702 24.7755 12.2069 24.7875 14.8938 24.7875C17.5806 24.7875 17.9178 24.7763 18.9727 24.7276C20.0261 24.6796 20.7453 24.5126 21.3742 24.268C22.0248 24.0148 22.5762 23.6766 23.1269 23.1269C23.6775 22.5771 24.0148 22.0248 24.268 21.3742C24.5126 20.7453 24.6804 20.026 24.7276 18.9727C24.7755 17.917 24.7867 17.5806 24.7867 14.8938C24.7867 12.2069 24.7755 11.8697 24.7276 10.8148C24.6796 9.76143 24.5126 9.0418 24.268 8.41326C24.0148 7.76273 23.6766 7.21129 23.1269 6.66065C22.5771 6.11 22.0248 5.77203 21.375 5.51946C20.7453 5.27489 20.026 5.10709 18.9735 5.05992C17.9185 5.01171 17.5814 5 14.8949 5C12.2085 5 11.8706 5.01116 10.8152 5.05992" fill="white"/>
</svg>
