<svg width="44" height="40" viewBox="0 0 44 40" fill="none" xmlns="http://www.w3.org/2000/svg">
<path d="M20 33C22.5 33 24.6253 32.1247 26.376 30.374C28.1267 28.6233 29.0013 26.4987 29 24C29 21.5 28.1247 19.3747 26.374 17.624C24.6233 15.8733 22.4987 14.9987 20 15C17.5 15 15.3747 15.8753 13.624 17.626C11.8733 19.3767 10.9987 21.5013 11 24C11 26.5 11.8753 28.6253 13.626 30.376C15.3767 32.1267 17.5013 33.0013 20 33ZM4 40C2.9 40 1.958 39.608 1.174 38.824C0.390003 38.04 -0.00132994 37.0987 3.39558e-06 36V12C3.39558e-06 10.9 0.392003 9.958 1.176 9.174C1.96 8.39 2.90134 7.99867 4 8H10.3L12.8 5.30001C13.1667 4.90001 13.6087 4.58334 14.126 4.35001C14.6433 4.11667 15.184 4.00001 15.748 4.00001H24C24.5667 4.00001 25.042 4.19201 25.426 4.57601C25.81 4.96001 26.0013 5.43467 26 6.00001V12H4V36H36V18H38C38.2667 18 38.5253 18.05 38.776 18.15C39.0267 18.25 39.2427 18.392 39.424 18.576C39.608 18.7587 39.75 18.9747 39.85 19.224C39.95 19.4733 40 19.732 40 20V36C40 37.1 39.608 38.042 38.824 38.826C38.04 39.61 37.0987 40.0013 36 40H4ZM36 8H34C33.4333 8 32.958 7.808 32.574 7.424C32.19 7.04 31.9987 6.56534 32 6.00001C32 5.43334 32.192 4.95801 32.576 4.57401C32.96 4.19001 33.4347 3.99867 34 4.00001H36V2.00001C36 1.43334 36.192 0.958007 36.576 0.574007C36.96 0.190007 37.4347 -0.00132641 38 6.92042e-06C38.5667 6.92042e-06 39.042 0.192007 39.426 0.576007C39.81 0.960007 40.0013 1.43467 40 2.00001V4.00001H42C42.5667 4.00001 43.042 4.19201 43.426 4.57601C43.81 4.96001 44.0013 5.43467 44 6.00001C44 6.56667 43.808 7.042 43.424 7.426C43.04 7.81 42.5653 8.00134 42 8H40V10C40 10.5667 39.808 11.042 39.424 11.426C39.04 11.81 38.5653 12.0013 38 12C37.4333 12 36.958 11.808 36.574 11.424C36.19 11.04 35.9987 10.5653 36 10V8Z" fill="#55565B"/>
</svg>
